<svg xmlns="http://www.w3.org/2000/svg" viewBox="0 0 50 49.99"><defs><style>.cls-1{fill:#0e0e0e;}.cls-2{fill:#fff;}</style></defs><title>behance</title><g id="Layer_2" data-name="Layer 2"><g id="Layer_1-2" data-name="Layer 1"><path class="cls-1" d="M50,25A25,25,0,1,1,25,0,25,25,0,0,1,50,25Z"/><path class="cls-2" d="M11.18,16.36H18a22.5,22.5,0,0,1,3,.15,4.48,4.48,0,0,1,1.76.74,4.12,4.12,0,0,1,1.32,1.42,3.88,3.88,0,0,1,.52,2,4.16,4.16,0,0,1-2.39,3.67,4.61,4.61,0,0,1,2.39,1.52,4.2,4.2,0,0,1,.82,2.58,5,5,0,0,1-.55,2.26,4.16,4.16,0,0,1-1.47,1.73,4.6,4.6,0,0,1-2.29.84c-.55,0-1.94.08-4.15.08H11.18Zm3.44,2.82v4h2.25A22.1,22.1,0,0,0,19.34,23a2.12,2.12,0,0,0,1.39-.61,1.71,1.71,0,0,0,.51-1.32,2.06,2.06,0,0,0-.42-1.29,2,2,0,0,0-1.31-.59c-.35,0-1.32-.05-2.92-.05Zm0,6.75v4.56h3.16a22.19,22.19,0,0,0,2.34-.09,2.05,2.05,0,0,0,1.28-.69,2.25,2.25,0,0,0,.47-1.47A2.61,2.61,0,0,0,21.51,27a2.84,2.84,0,0,0-1.08-.78,13.77,13.77,0,0,0-3.07-.24Z"/><path class="cls-2" d="M35.43,29.44l3.22.55a4.94,4.94,0,0,1-2,2.7,5.59,5.59,0,0,1-3.39.94,5.57,5.57,0,0,1-4.76-2.08,7.28,7.28,0,0,1-1.19-4.28,6.86,6.86,0,0,1,1.58-4.78,5.31,5.31,0,0,1,4-1.76,5.62,5.62,0,0,1,4.36,1.85c1,1.2,1.56,3.09,1.51,5.55H30.69a3.31,3.31,0,0,0,.77,2.27,2.45,2.45,0,0,0,1.89.78,2.05,2.05,0,0,0,1.29-.41A2.58,2.58,0,0,0,35.43,29.44Zm.17-3.31A3,3,0,0,0,34.86,24a2.08,2.08,0,0,0-1.67-.74,2.1,2.1,0,0,0-1.76.78,2.93,2.93,0,0,0-.7,2.08Z"/><path class="cls-2" d="M29.62,19.68V16.8h7.21v2.88Z"/></g></g></svg>