<svg xmlns="http://www.w3.org/2000/svg" viewBox="0 0 50 48.78"><title>github</title><g id="Layer_2" data-name="Layer 2"><g id="Capa_1" data-name="Capa 1"><path d="M46.65,12.45a25,25,0,0,0-9.1-9.1A24.5,24.5,0,0,0,25,0,24.5,24.5,0,0,0,12.45,3.35a25,25,0,0,0-9.1,9.1A24.5,24.5,0,0,0,0,25,24.3,24.3,0,0,0,4.77,39.7a24.46,24.46,0,0,0,12.32,9,1.44,1.44,0,0,0,1.3-.23,1.26,1.26,0,0,0,.42-1c0-.07,0-.66,0-1.76s0-2.08,0-2.9L18,43a9.35,9.35,0,0,1-1.8.11A14,14,0,0,1,14,42.89a5.1,5.1,0,0,1-2.18-1,4.14,4.14,0,0,1-1.43-2L10,39.16A8.21,8.21,0,0,0,9,37.5a4,4,0,0,0-1.42-1.24l-.22-.16a2.27,2.27,0,0,1-.43-.39,1.77,1.77,0,0,1-.29-.46c-.06-.15,0-.27.16-.37a2.1,2.1,0,0,1,1-.15l.65.1a4.92,4.92,0,0,1,1.61.78,5.33,5.33,0,0,1,1.58,1.69,5.83,5.83,0,0,0,1.8,2,3.91,3.91,0,0,0,2.14.7,9.88,9.88,0,0,0,1.85-.16,7.05,7.05,0,0,0,1.47-.49A5.26,5.26,0,0,1,20.44,36a22,22,0,0,1-3.33-.58,13.45,13.45,0,0,1-3.06-1.27A9,9,0,0,1,11.42,32a10.51,10.51,0,0,1-1.7-3.42,16.08,16.08,0,0,1-.67-4.88A9.52,9.52,0,0,1,11.62,17a8.74,8.74,0,0,1,.23-6.64,4.52,4.52,0,0,1,2.8.44A21.54,21.54,0,0,1,17.37,12c.57.35,1,.64,1.38.88a23.67,23.67,0,0,1,12.5,0l1.24-.78a17,17,0,0,1,3-1.43,4.27,4.27,0,0,1,2.64-.36A8.71,8.71,0,0,1,38.38,17,9.52,9.52,0,0,1,41,23.7a16.31,16.31,0,0,1-.67,4.9A10,10,0,0,1,38.56,32a9.25,9.25,0,0,1-2.64,2.17,13.45,13.45,0,0,1-3.06,1.27,22.48,22.48,0,0,1-3.33.58,5.84,5.84,0,0,1,1.69,4.63v6.86a1.3,1.3,0,0,0,.4,1,1.42,1.42,0,0,0,1.29.23,24.46,24.46,0,0,0,12.32-9A24.32,24.32,0,0,0,50,25,24.5,24.5,0,0,0,46.65,12.45Z"/></g></g></svg>