<svg xmlns="http://www.w3.org/2000/svg" viewBox="0 0 50 50"><defs><style>.cls-1{fill:#0e0e0e;}.cls-2{fill:#fff;}</style></defs><title>linkedin</title><g id="Layer_2" data-name="Layer 2"><g id="Layer_1-2" data-name="Layer 1"><path class="cls-1" d="M50,25A25,25,0,1,1,25,0,25,25,0,0,1,50,25Z"/><path class="cls-2" d="M14.12,18.27v-3.7h4v3.7Zm0,17.1v-15h4v15Z"/><path class="cls-2" d="M35.88,35.37h-4V27.69a11.21,11.21,0,0,0-.26-3.13,2.08,2.08,0,0,0-.82-1.15,2.43,2.43,0,0,0-1.39-.36,3.2,3.2,0,0,0-1.85.55,2.71,2.71,0,0,0-1.12,1.52,13.1,13.1,0,0,0-.31,3.45v6.8h-4v-15h3.71v2.21a6.06,6.06,0,0,1,7.35-2.09,4.09,4.09,0,0,1,1.66,1.21,4.7,4.7,0,0,1,.79,1.66A13.7,13.7,0,0,1,35.88,26Z"/></g></g></svg>